<svg width="52" height="37" viewBox="0 0 52 37" fill="none" xmlns="http://www.w3.org/2000/svg">
<path d="M30.8414 0.307674C30.423 0.666298 28.6 5.98584 24.8345 17.8203C21.846 27.1743 19.4253 35.064 19.4253 35.3629C19.4253 36.0203 20.3816 36.5881 21.0391 36.3491C21.5471 36.1697 21.577 36.0801 27.9425 16.1169C30.4828 8.10768 32.5747 1.264 32.5747 0.965145C32.5747 0.0685959 31.5586 -0.319912 30.8414 0.307674Z" fill="#01B075"/>
<path d="M7.82989 10.7077C0.627586 15.4893 0 16.087 0 18.0295C0 19.7927 0.777012 20.5399 7.77012 25.172C14.9724 29.9537 15.8989 30.3422 16.0782 28.6985C16.1678 27.9514 15.6897 27.5629 9.47356 23.4088C5.76782 20.9284 2.65977 18.7766 2.54023 18.5973C1.94253 17.641 2.86897 16.8341 9.41379 12.5008C14.9724 8.82492 16.1379 7.92837 16.1379 7.36055C16.1379 6.79274 15.4207 6.04561 14.8828 6.04561C14.823 6.04561 11.6552 8.13756 7.82989 10.7077Z" fill="#01B075"/>
<path d="M36.2507 6.37435C35.1749 7.45021 35.6829 7.92837 42.5864 12.5008C49.1312 16.8341 50.0576 17.641 49.4599 18.5973C49.3404 18.7766 46.2323 20.9284 42.5266 23.4088C36.3105 27.5629 35.8323 27.9514 35.922 28.6985C36.1013 30.3422 37.0277 29.9537 44.23 25.172C51.2231 20.5399 52.0002 19.7927 52.0002 18.0295C52.0002 16.087 51.3726 15.4893 44.3496 10.7973C40.5841 8.31688 37.3266 6.19504 37.0576 6.13527C36.8185 6.0755 36.43 6.19504 36.2507 6.37435Z" fill="#01B075"/>
</svg>
