<svg width="27" height="26" viewBox="0 0 27 26" fill="none" xmlns="http://www.w3.org/2000/svg">
<path fill-rule="evenodd" clip-rule="evenodd" d="M13.002 0C5.82103 0 0 5.82101 0 13.002C0 18.7444 3.72609 23.6181 8.89072 25.3358C9.53925 25.4576 9.77901 25.0528 9.77901 24.7108C9.77901 24.4003 9.76722 23.3784 9.76329 22.2896C6.14725 23.0757 5.38474 20.7568 5.38474 20.7568C4.79517 19.2553 3.94226 18.8544 3.94226 18.8544C2.76312 18.0487 4.03266 18.0644 4.03266 18.0644C5.33758 18.1548 6.02541 19.4047 6.02541 19.4047C7.1849 21.3935 9.06759 20.8157 9.81045 20.4856C9.92837 19.6444 10.2625 19.0706 10.6359 18.7483C7.74696 18.4181 4.71263 17.3058 4.71263 12.322C4.71263 10.9031 5.21966 9.74361 6.05292 8.83175C5.91929 8.50552 5.47121 7.18095 6.1787 5.39259C6.1787 5.39259 7.27137 5.04278 9.75543 6.72502C10.7931 6.4381 11.9054 6.29267 13.0099 6.28874C14.1143 6.29267 15.2266 6.4381 16.2682 6.72502C18.7483 5.04278 19.841 5.39259 19.841 5.39259C20.5485 7.18488 20.1044 8.50552 19.9668 8.83175C20.8 9.74361 21.3031 10.9031 21.3031 12.322C21.3031 17.3137 18.261 18.4142 15.3681 18.7365C15.8359 19.1413 16.2486 19.9314 16.2486 21.142C16.2486 22.8831 16.2328 24.2824 16.2328 24.7108C16.2328 25.0567 16.4687 25.4615 17.1251 25.3358C22.2897 23.6142 26.0079 18.7444 26.0079 13.002C26.0001 5.82101 20.179 0 13.002 0Z" fill="white"/>
<path d="M4.92488 18.6658C4.89736 18.7287 4.79517 18.7484 4.70084 18.7051C4.60651 18.6619 4.55541 18.5754 4.58292 18.5086C4.61044 18.4418 4.71263 18.4221 4.80696 18.4693C4.90129 18.5125 4.95632 18.599 4.92488 18.6658Z" fill="white"/>
<path d="M5.45157 19.2514C5.38868 19.3104 5.26684 19.2829 5.1843 19.1925C5.09784 19.1021 5.08212 18.9802 5.145 18.9213C5.20789 18.8623 5.3258 18.8898 5.41226 18.9802C5.49873 19.0746 5.51445 19.1925 5.45157 19.2514Z" fill="white"/>
<path d="M5.96248 20.0021C5.88387 20.0572 5.75417 20.0061 5.67163 19.8882C5.59302 19.7742 5.59302 19.6327 5.67163 19.5776C5.75024 19.5226 5.87994 19.5737 5.96248 19.6877C6.04502 19.8056 6.04502 19.9432 5.96248 20.0021Z" fill="white"/>
<path d="M6.66609 20.7253C6.59534 20.8039 6.44205 20.7842 6.332 20.6742C6.21802 20.5681 6.18657 20.4187 6.25732 20.3401C6.32807 20.2615 6.48136 20.2851 6.59534 20.3912C6.7054 20.4973 6.74077 20.6467 6.66609 20.7253Z" fill="white"/>
<path d="M7.63298 21.1458C7.60154 21.248 7.45611 21.2952 7.30675 21.2519C7.16132 21.2087 7.06305 21.0869 7.0945 20.9847C7.12594 20.8825 7.27137 20.8353 7.42073 20.8786C7.57009 20.9218 7.66443 21.0397 7.63298 21.1458Z" fill="white"/>
<path d="M8.69815 21.2205C8.70208 21.3267 8.5763 21.4171 8.42301 21.4171C8.26579 21.421 8.14001 21.3345 8.14001 21.2284C8.14001 21.1183 8.26186 21.0319 8.41908 21.028C8.57237 21.028 8.69815 21.1144 8.69815 21.2205Z" fill="white"/>
<path d="M9.68861 21.0555C9.70826 21.1617 9.59821 21.2678 9.44492 21.2953C9.29556 21.3228 9.15407 21.2599 9.13442 21.1538C9.11476 21.0477 9.22482 20.9376 9.37417 20.9101C9.53139 20.8865 9.66895 20.9494 9.68861 21.0555Z" fill="white"/>
</svg>
