<svg width="44" height="54" viewBox="0 0 44 54" fill="none" xmlns="http://www.w3.org/2000/svg">
<path d="M38 21.4444H6C4.11438 21.4444 3.17157 21.4444 2.58579 22.0302C2 22.616 2 23.5588 2 25.4444V47.9999C2 49.8855 2 50.8283 2.58579 51.4141C3.17157 51.9999 4.11438 51.9999 6 51.9999H38C39.8856 51.9999 40.8284 51.9999 41.4142 51.4141C42 50.8283 42 49.8855 42 47.9999V25.4444C42 23.5588 42 22.616 41.4142 22.0302C40.8284 21.4444 39.8856 21.4444 38 21.4444Z" stroke="#01B075" stroke-width="3"/>
<path d="M12 21.4444C12 21.4444 12 17.2777 12 11.7224C12 3.38888 18.0948 2 22 2C25.9052 2 32 3.38888 32 10.3333V21.4444" stroke="#01B075" stroke-width="3"/>
</svg>
