<svg width="28" height="32" viewBox="0 0 28 32" fill="none" xmlns="http://www.w3.org/2000/svg">
<path d="M3.37934 4.83471V26.3653C3.37934 27.2549 4.10132 27.9769 4.99091 27.9769H12.8983C13.7879 27.9769 14.5099 28.6988 14.5099 29.5884C14.5099 30.478 13.7879 31.2 12.8983 31.2H2.11157C1.22198 31.2 0.5 30.478 0.5 29.5884V1.61157C0.5 0.721983 1.22198 0 2.11157 0H12.8983C13.7879 0 14.5099 0.721983 14.5099 1.61157C14.5099 2.50116 13.7879 3.22314 12.8983 3.22314H4.99091C4.10132 3.22314 3.37934 3.94512 3.37934 4.83471Z" fill="white"/>
<path d="M7.50494 14.6C6.95266 14.6 6.50494 15.0477 6.50494 15.6C6.50494 16.1523 6.95266 16.6 7.50494 16.6L7.50494 14.6ZM27.2071 16.3071C27.5976 15.9166 27.5976 15.2834 27.2071 14.8929L20.8431 8.52891C20.4526 8.13838 19.8194 8.13838 19.4289 8.52891C19.0384 8.91943 19.0384 9.5526 19.4289 9.94312L25.0858 15.6L19.4289 21.2568C19.0384 21.6474 19.0384 22.2805 19.4289 22.671C19.8194 23.0616 20.4526 23.0616 20.8431 22.671L27.2071 16.3071ZM7.50494 16.6L26.5 16.6L26.5 14.6L7.50494 14.6L7.50494 16.6Z" fill="white"/>
</svg>
