<svg width="52" height="47" viewBox="0 0 52 47" fill="none" xmlns="http://www.w3.org/2000/svg">
<path d="M13.6239 0.184982C12.0279 0.576721 11.0123 0.85239 10.7221 0.968464C9.93862 1.27315 9.0971 1.59235 8.83594 1.69391C8.21205 1.94056 6.51451 2.76757 6.44196 2.85463C6.39844 2.89815 5.94866 3.20284 5.44085 3.50753C4.19308 4.26199 1.97321 6.46735 1.23326 7.6861C0.899554 8.22293 0.638393 8.74525 0.638393 8.84681C0.638393 8.94838 0.565848 9.10797 0.493304 9.18052C0.261161 9.41266 0 10.9361 0 11.9953C0 12.9673 0.261161 14.5778 0.478795 15.0131C0.551339 15.1437 0.725446 15.5064 0.870536 15.7966C1.01562 16.1013 1.18973 16.3479 1.24777 16.3479C1.32031 16.3479 1.36384 16.435 1.36384 16.5365C1.36384 16.7107 2.72768 18.089 3.48214 18.6694C3.62723 18.7854 4.17857 19.2207 4.70089 19.6124C5.78906 20.4394 5.86161 20.5265 6.44196 21.4986C6.79018 22.0935 6.87723 22.3836 6.87723 23.1236C6.87723 24.6615 6.07924 25.8948 4.33817 26.9975C3.46763 27.5633 1.36384 29.522 1.36384 29.7977C1.36384 29.8993 1.3058 29.9863 1.21875 29.9863C1.14621 29.9863 1.04464 30.1459 0.986607 30.349C0.94308 30.5522 0.841518 30.7118 0.768973 30.7118C0.696429 30.7118 0.638393 30.8278 0.638393 30.9729C0.638393 31.118 0.565848 31.3066 0.478795 31.3937C0.27567 31.5968 0.0145089 33.2073 0 34.2665C0 35.2531 0.290179 36.9506 0.507812 37.1537C0.580357 37.2408 0.638393 37.3859 0.638393 37.4874C0.638393 37.7051 1.50893 39.1705 1.68304 39.243C1.74107 39.272 1.79911 39.3736 1.79911 39.4607C1.79911 39.7073 4.0625 41.8836 4.91853 42.4785C5.32478 42.7542 5.67299 43.0008 5.71652 43.0444C5.77455 43.1169 6.28237 43.3926 7.89286 44.2196C8.00893 44.2921 8.35714 44.4372 8.64732 44.5678C8.95201 44.6839 9.41629 44.887 9.69196 45.0031C9.96763 45.1191 10.2578 45.2207 10.3449 45.2207C10.4319 45.2207 10.6205 45.2787 10.7656 45.3513C10.8962 45.4238 11.433 45.5979 11.9554 45.7285C12.4777 45.8591 13.1016 46.0332 13.3337 46.1202C13.9431 46.3379 19.6451 46.4394 20.8058 46.2508C23.0982 45.8881 24.7232 45.4238 26.6384 44.5823C26.9286 44.4517 27.2333 44.3502 27.3203 44.3502C27.4074 44.3502 27.4799 44.2921 27.4799 44.2196C27.4799 44.147 27.683 44.0455 27.9152 43.9874C28.1618 43.9294 28.3504 43.8278 28.3504 43.7553C28.3504 43.6827 28.452 43.6247 28.5681 43.6247C28.6842 43.6247 29.308 43.262 29.9609 42.8267C30.6138 42.3915 31.1942 42.0287 31.2522 42.0287C31.3248 42.0287 31.3973 41.9852 31.4263 41.9127C31.4554 41.8546 31.76 41.579 32.1228 41.3033C32.8772 40.7229 35.6049 37.9807 35.6049 37.8211C35.6049 37.7486 35.692 37.6035 35.7935 37.5019C36.2288 37.0522 36.9107 36.0946 36.9107 35.9495C36.9107 35.8624 36.9542 35.7899 37.0268 35.7899C37.0848 35.7899 37.2589 35.5432 37.4185 35.2386C37.5781 34.9484 37.7377 34.6727 37.7812 34.6292C37.9554 34.4551 38.7969 32.6995 38.7969 32.5109C38.7969 32.3948 38.8549 32.3077 38.942 32.3077C39.0145 32.3077 39.1306 32.0466 39.1741 31.7274C39.2321 31.4082 39.3192 31.147 39.3772 31.147C39.4353 31.147 39.5368 30.9149 39.5949 30.6247C39.6384 30.3345 39.74 29.9863 39.8125 29.8557C39.9286 29.6236 40.2913 28.0856 40.4654 27.0845C40.5525 26.6202 40.7846 24.3423 40.8136 23.6749C40.8281 23.3993 41.4375 22.6013 42.3225 21.6872C42.5402 21.4551 42.7143 21.2374 42.7143 21.1794C42.7143 21.1359 42.8594 20.9618 43.048 20.7877C43.2221 20.6281 43.5993 20.1928 43.875 19.8301C44.1507 19.4819 44.5424 19.0176 44.7455 18.7999C45.1808 18.3356 45.529 17.9294 46.1964 17.0734C46.4721 16.7106 46.7333 16.3915 46.7768 16.3479C46.8203 16.3044 47.183 15.8546 47.5748 15.3323C47.9665 14.81 48.3292 14.3602 48.3728 14.3167C48.6049 14.1136 50.1138 11.9953 50.1138 11.8792C50.1138 11.7921 50.1719 11.7051 50.2299 11.6761C50.375 11.618 51.2746 10.1526 51.2746 9.964C51.2746 9.87695 51.3181 9.81891 51.3906 9.81891C51.5212 9.81891 52 8.4986 52 8.13588C52 7.97628 51.8404 7.65708 51.6518 7.42494C51.3326 7.0332 51.2165 6.98967 50.5346 7.00418C50.0848 7.00418 49.7511 7.07672 49.7076 7.17828C49.6786 7.27985 49.5625 7.35239 49.4464 7.35239C49.2723 7.35239 47.8214 8.16489 47.6473 8.36802C47.6038 8.41154 47.3862 8.57114 47.1395 8.71623C46.6462 9.02092 45.2098 10.0946 44.9196 10.3557C44.8181 10.4573 44.673 10.5444 44.6295 10.5444C44.5714 10.5444 44.3683 10.6894 44.1652 10.8636C43.9621 11.0522 43.3092 11.589 42.7143 12.0678C42.1194 12.5466 41.5971 12.9673 41.5536 13.0109C41.51 13.0544 41.0893 13.4171 40.6105 13.8089C40.1317 14.2151 39.6529 14.6214 39.5368 14.7374C39.3482 14.897 39.2612 14.7955 38.8984 14.012C38.173 12.416 37.8538 11.7776 37.7522 11.7341C37.6797 11.7051 37.6362 11.589 37.6362 11.4729C37.6362 11.3569 37.5781 11.2698 37.5056 11.2698C37.433 11.2698 37.317 11.1247 37.2589 10.9361C37.2009 10.762 37.1283 10.5879 37.0703 10.5444C37.0268 10.5008 36.7511 10.1381 36.49 9.74636C36.2143 9.34011 35.9531 8.9919 35.9096 8.94838C35.8516 8.90485 35.5904 8.58565 35.3002 8.22293C34.5458 7.29436 33.1674 5.9015 32.4855 5.39369C32.1663 5.14703 31.7746 4.82784 31.615 4.66824C31.3103 4.36355 30.904 4.08788 30.5268 3.91378C30.4107 3.85574 30.2801 3.76869 30.2366 3.72516C30.1496 3.60909 29.1194 2.99971 28.2054 2.53543C27.8426 2.34681 27.5379 2.1582 27.5089 2.08565C27.4799 2.02761 27.3783 1.98409 27.2913 1.98409C27.2042 1.98409 26.6094 1.78096 25.971 1.53431C24.2589 0.866901 24.2879 0.866901 23.3449 0.634758C22.8661 0.518684 22.1842 0.33007 21.8214 0.243015C20.7623 -0.0471611 14.6975 -0.0906906 13.6239 0.184982ZM20.5882 1.98409C22.0391 2.20172 23.1853 2.44838 23.3304 2.57895C23.4174 2.6515 23.5915 2.70953 23.7366 2.70953C23.8817 2.70953 24.1138 2.76757 24.2589 2.84011C24.3895 2.91266 24.9118 3.11578 25.4196 3.28989C25.9129 3.47851 26.3627 3.68163 26.4062 3.73967C26.4498 3.81221 26.6094 3.87025 26.769 3.87025C26.9141 3.87025 27.0446 3.92828 27.0446 3.98632C27.0446 4.04436 27.2188 4.17494 27.4509 4.26199C27.8571 4.4361 28.9453 5.04547 29.0759 5.17605C29.1194 5.21958 29.3951 5.4082 29.6853 5.61132C29.99 5.81445 30.2366 6.01757 30.2366 6.07561C30.2366 6.14815 30.3092 6.19168 30.3962 6.19168C30.5703 6.19168 32.2969 7.65708 32.7902 8.22293C32.9643 8.42605 33.4431 8.94838 33.8493 9.38364C34.2556 9.81891 34.5893 10.2542 34.5893 10.3557C34.5893 10.4428 34.6473 10.5444 34.7054 10.5734C34.8504 10.6314 35.8951 12.2274 36.2578 12.9383C36.4174 13.2575 36.5915 13.5477 36.6496 13.5912C36.6931 13.6348 36.7946 13.8524 36.8382 14.07C36.8962 14.2877 36.9978 14.4618 37.0703 14.4618C37.1429 14.4618 37.2009 14.5778 37.2009 14.7084C37.2009 14.8535 37.3025 15.1582 37.4185 15.3903C37.6507 15.8256 37.7087 16.493 37.5346 16.493C37.4621 16.493 37.0268 16.8557 36.548 17.3055C36.0692 17.7553 35.4163 18.3502 35.0971 18.6258C33.5592 19.9752 29.9174 23.3702 27.7411 25.4886C25.7969 27.3747 25.4051 27.6504 24.6217 27.6649C24.375 27.6649 24.1283 27.7229 24.0848 27.7955C24.0268 27.868 23.7366 27.9696 23.4174 28.0276C23.0982 28.0856 22.8371 28.1727 22.8371 28.2162C22.8371 28.2743 22.6194 28.4194 22.3728 28.5209C21.7634 28.7821 20.3705 30.1894 20.0513 30.8569C19.4129 32.1917 19.0938 33.0767 18.9342 34.0488C18.4118 37.0086 17.8605 37.9952 16.5837 38.1839C15.6551 38.329 15.4085 38.5466 15.4665 39.214C15.4955 39.6348 15.5971 39.8089 15.8728 39.9394C17.5993 40.7665 19.6161 41.1582 22.0246 41.1582C24.1283 41.1582 25.202 40.9261 26.8705 40.099C27.9587 39.5622 29.25 38.3725 30.0045 37.1827C30.5703 36.2977 31.3973 34.3245 31.3973 33.8602C31.3973 33.7151 31.673 33.3089 32.0212 32.9752C32.3549 32.6269 33.3125 31.6113 34.154 30.7118C34.9955 29.8122 35.9676 28.7676 36.3304 28.3903C36.6931 27.9986 37.2734 27.3602 37.6362 26.9394C37.9989 26.5332 38.4051 26.1269 38.5647 26.0399C38.8114 25.9093 38.8259 25.9383 38.7388 26.3011C38.6808 26.5332 38.5502 27.1426 38.4342 27.6649C38.1004 29.2173 37.9118 29.8993 37.7667 30.0444C37.6942 30.1314 37.6362 30.3055 37.6362 30.4506C37.6362 30.5957 37.5781 30.8278 37.5056 30.9729C37.433 31.1035 37.0993 31.7854 36.7656 32.4819C35.3438 35.4562 32.6161 38.7497 30.3527 40.2441C30.048 40.4473 29.8013 40.6649 29.8013 40.7229C29.8013 40.781 29.6417 40.8825 29.4386 40.9261C29.2355 40.9841 29.0759 41.0857 29.0759 41.1582C29.0759 41.2452 28.9743 41.3033 28.8583 41.3033C28.7422 41.3033 28.6406 41.3613 28.6406 41.4339C28.6406 41.5064 28.4955 41.6225 28.3214 41.6805C28.1328 41.7386 27.9587 41.8111 27.9152 41.8691C27.8717 41.9127 27.3929 42.1738 26.827 42.435C26.2757 42.7107 25.6953 42.9863 25.5647 43.0589C25.4196 43.1314 25.231 43.1894 25.144 43.1894C25.0569 43.1894 24.7812 43.2765 24.5346 43.3781C23.8092 43.6973 23.1127 43.9004 22.4018 44.0019C22.0391 44.06 21.6908 44.147 21.6038 44.2051C21.2701 44.4662 17.3672 44.6403 15.4955 44.4807C14.4654 44.3937 13.5658 44.2776 13.4788 44.2051C13.4062 44.147 13.058 44.06 12.7098 44.0019C12.3616 43.9584 11.9699 43.8569 11.8393 43.7843C11.7087 43.7118 11.3315 43.5812 11.0123 43.4796C10.4609 43.3055 9.5904 42.9573 8.76339 42.5656C8.13951 42.2754 5.93415 40.9261 5.48438 40.5633C4.5558 39.8089 3.33705 38.4886 2.85826 37.7341C1.71205 35.9495 1.56696 33.2944 2.52455 31.4662C2.88728 30.7553 4.75893 28.8256 5.07812 28.8256C5.22321 28.8256 6.10826 28.0856 6.9933 27.2151C7.79129 26.4171 8.47321 25.3435 8.47321 24.8647C8.47321 24.7341 8.54576 24.589 8.6183 24.5455C8.80692 24.4294 8.80692 21.9048 8.6183 21.7888C8.54576 21.7452 8.47321 21.6002 8.47321 21.4696C8.47321 20.7296 7.03683 18.9015 5.81808 18.089C5.5279 17.8859 5.28125 17.6827 5.28125 17.6102C5.28125 17.5522 5.20871 17.5086 5.13616 17.5086C4.75893 17.5086 2.9308 15.6805 2.53906 14.9261C1.85714 13.5912 1.63951 11.8066 2.01674 10.5589C2.24888 9.76088 2.81473 8.54213 3.14844 8.12136C3.46763 7.72963 5.04911 6.11913 5.46987 5.78543C6.44196 5.00195 9.2567 3.43498 9.69196 3.43498C9.82254 3.43498 9.92411 3.37695 9.92411 3.3044C9.92411 3.23186 10.1853 3.13029 10.5045 3.07226C10.8237 3.01422 11.0848 2.92717 11.0848 2.85463C11.0848 2.79659 11.2589 2.70953 11.4911 2.66601C11.9408 2.57895 12.9565 2.31779 13.6964 2.11467C15.0458 1.72293 18.3248 1.66489 20.5882 1.98409ZM49.2433 9.76088C49.2433 9.89145 48.0391 11.6325 47.9085 11.6761C47.8504 11.7051 47.7924 11.7921 47.7924 11.8792C47.7924 12.0098 47.0234 13.0689 46.7768 13.3011C46.7333 13.3446 46.4721 13.6638 46.1964 14.0265C45.9208 14.3892 45.6596 14.7084 45.6161 14.7519C45.558 14.7955 45.2969 15.1292 45.0212 15.4919C44.7455 15.8546 44.2377 16.493 43.875 16.9283C41.8002 19.3948 41.481 19.772 41.3795 19.8446C41.3069 19.8881 41.1038 20.1202 40.9297 20.3814C40.625 20.7877 39.4062 22.1805 38.5067 23.1526C38.3036 23.3702 37.8973 23.8345 37.5781 24.1973C35.9531 26.0544 33.4721 28.7386 31.6585 30.5812L30.6719 31.5823L29.192 30.0444C28.365 29.2028 27.683 28.4484 27.654 28.3903C27.5815 28.2017 33.1819 22.8189 36.0402 20.3234C36.3884 20.0042 36.9252 19.5109 37.2299 19.2062C37.5346 18.916 37.8248 18.6694 37.8683 18.6694C37.9118 18.6694 38.3036 18.3211 38.7533 17.9004C39.1886 17.4941 39.6094 17.1169 39.7109 17.0879C39.798 17.0589 40.0011 16.8848 40.1607 16.7252C40.3348 16.5511 40.8571 16.0868 41.3359 15.695C41.8147 15.2888 42.279 14.897 42.3661 14.8245C42.7723 14.4618 43.9475 13.5042 44.2232 13.3156C44.3973 13.1995 44.673 12.9528 44.8471 12.7642C45.0212 12.5756 45.2388 12.4305 45.3259 12.4305C45.3984 12.4305 45.471 12.387 45.471 12.3144C45.471 12.2564 45.7176 12.0533 46.0223 11.8502C46.3125 11.647 46.5882 11.4584 46.6317 11.4149C46.6752 11.3714 47.2121 10.9506 47.8504 10.5008C48.9096 9.73186 49.2433 9.55775 49.2433 9.76088ZM28.2199 31.7854C29.5257 33.0912 29.5692 33.1638 29.5112 33.6861C29.4821 34.0778 28.7422 35.7609 28.423 36.1961C28.1038 36.6314 26.6384 38.1113 26.5368 38.1113C26.4643 38.1113 26.3047 38.1984 26.1886 38.3144C26.058 38.4305 25.4632 38.6917 24.8538 38.8948C23.8962 39.2285 23.519 39.272 21.9375 39.272C20.9364 39.272 19.9208 39.1995 19.6741 39.1124L19.2243 38.9528L19.6161 38.2129C19.8337 37.7921 20.1094 37.1973 20.2254 36.8781C20.4141 36.3122 20.4866 36.0075 20.7913 34.339C21.0815 32.8156 21.8214 31.2776 22.5759 30.6827C23.2723 30.1459 24.4766 29.5511 24.8973 29.5511C25.0859 29.5511 25.3326 29.4785 25.4487 29.406C25.6808 29.2609 25.7824 29.3334 28.2199 31.7854Z" fill="#01B075"/>
<path d="M19.9932 6.1771C18.4698 6.43826 17.3236 7.58447 16.8303 9.36907C16.6271 10.0655 16.6271 10.2396 16.8448 11.1101C17.1785 12.474 18.0345 13.5767 19.0646 13.9684C19.1807 14.0119 19.3983 14.1135 19.5289 14.186C19.674 14.2586 20.2834 14.3166 20.8928 14.3166C23.0256 14.3166 24.4475 13.1559 25.0423 10.936C25.1874 10.3557 25.1874 10.1235 24.9553 9.2675C24.8102 8.73067 24.6361 8.26639 24.5635 8.25188C24.491 8.22286 24.4329 8.1213 24.4329 8.01974C24.4329 7.75858 23.3012 6.75746 22.6919 6.45277C22.097 6.16259 20.8202 6.03201 19.9932 6.1771ZM21.5602 8.09228C23.3883 8.58559 23.7945 10.936 22.2421 12.0387C21.4731 12.59 20.2834 12.59 19.5579 12.0387C18.8905 11.5454 18.6294 11.0086 18.6294 10.1816C18.6294 9.20947 19.2387 8.36795 20.1528 8.09228C20.7477 7.90367 20.9363 7.90367 21.5602 8.09228Z" fill="#01B075"/>
<path d="M8.90857 9.32568C8.70544 9.3692 8.34272 9.49978 8.08156 9.61586C7.83491 9.73193 7.57375 9.81898 7.51571 9.81898C7.31258 9.81898 6.00678 11.2699 6.00678 11.4875C6.00678 11.6036 5.94875 11.7051 5.89071 11.7051C5.81816 11.7051 5.68758 12.1114 5.60053 12.6047C5.42642 13.5623 5.5425 14.3893 5.97776 15.3324C6.29696 15.9998 7.39964 17.0444 7.92196 17.146C8.13959 17.204 8.35723 17.3056 8.40075 17.3781C8.45879 17.4507 9.01013 17.5087 9.63401 17.5087C11.23 17.5087 12.086 17.1025 13.1452 15.7822C13.2903 15.6226 13.4354 15.3179 13.4934 15.1147C13.5369 14.9116 13.6385 14.7085 13.711 14.665C13.8851 14.5634 13.8851 12.329 13.711 12.213C13.6385 12.1694 13.5369 11.9373 13.4789 11.7051C13.4208 11.4585 13.3193 11.2699 13.2467 11.2699C13.1742 11.2699 13.1162 11.1828 13.1162 11.0813C13.1162 10.8056 12.4197 10.1817 11.6362 9.76095C10.9543 9.39822 9.64852 9.1951 8.90857 9.32568ZM10.9108 11.5165C11.0124 11.6181 11.1575 11.7051 11.23 11.7051C11.5202 11.7051 11.9554 12.7643 11.9554 13.4752C11.9554 14.3167 11.5202 15.0277 10.7947 15.4049C10.2289 15.6951 8.98111 15.6806 8.45879 15.3759C8.03803 15.1292 7.31258 13.9105 7.31258 13.4462C7.31258 12.6772 8.19763 11.473 8.89406 11.3279C9.09718 11.2844 9.34383 11.2263 9.41638 11.1973C9.70656 11.1103 10.7222 11.3279 10.9108 11.5165Z" fill="#01B075"/>
<path d="M29.5836 12.8513C28.4083 13.0544 27.5668 13.6348 26.8269 14.752C26.4061 15.3759 26.3916 15.4774 26.3916 16.9719C26.3916 17.8424 26.4496 18.5823 26.5367 18.6404C26.6237 18.6984 26.7833 18.9306 26.8994 19.1627C27.1751 19.685 28.1472 20.4975 28.684 20.6281C28.9016 20.6861 29.0758 20.7877 29.0758 20.8602C29.0758 20.9328 29.6126 20.9908 30.28 20.9908C31.6438 20.9908 32.3403 20.7442 33.2688 19.9027C34.1539 19.1047 34.5166 18.2341 34.5166 16.9428C34.5166 15.7676 34.2119 14.8971 33.5445 14.1716C33.0947 13.6638 32.3403 13.156 32.0791 13.156C31.9485 13.156 31.8325 13.098 31.8034 13.0254C31.7454 12.8513 30.2655 12.7352 29.5836 12.8513ZM31.8179 15.1437C33.0077 16.0433 32.9787 17.7989 31.7599 18.7419C31.3682 19.0321 31.107 19.1047 30.4251 19.1047C28.8436 19.1047 27.8425 17.8714 28.1907 16.348C28.3358 15.6661 29.1773 14.81 29.7867 14.7085C30.4686 14.5924 31.3246 14.781 31.8179 15.1437Z" fill="#01B075"/>
<path d="M9.8517 30.1604C8.58943 30.5811 7.68987 31.3211 7.12402 32.3802C6.87737 32.8445 6.81934 33.2072 6.81934 34.2664C6.81934 35.4416 6.86286 35.6302 7.22559 36.2106C7.76242 37.0376 7.96554 37.2552 8.76353 37.763C9.38742 38.1548 9.50349 38.1838 10.9979 38.1838C12.1441 38.1838 12.6084 38.1258 12.6519 37.9952C12.6809 37.9081 12.7825 37.8211 12.8986 37.8211C13.2323 37.8211 14.2334 36.8055 14.6251 36.0655C14.9443 35.4561 15.0024 35.1369 15.0024 34.1939C15.0024 33.2508 14.9443 32.9316 14.6251 32.3512C14.2334 31.5968 13.4354 30.7262 13.1597 30.7117C13.0582 30.7117 12.9711 30.6537 12.9711 30.5956C12.9711 30.4215 11.3316 29.9863 10.7658 30.0008C10.5046 30.0153 10.0984 30.0878 9.8517 30.1604ZM11.9265 32.1626C11.9555 32.2351 12.0426 32.3077 12.1296 32.3077C12.2892 32.3077 12.5213 32.5398 12.8696 33.0331C13.2033 33.5119 13.2033 34.8758 12.8696 35.3546C12.4343 35.993 11.5638 36.5153 10.9399 36.5153C10.0838 36.5153 8.76353 35.6012 8.76353 34.9918C8.76353 34.8613 8.7055 34.6436 8.63295 34.4985C8.53139 34.3244 8.56041 34.0343 8.7055 33.599C9.12626 32.3947 9.98228 31.8144 11.1575 31.9305C11.5492 31.974 11.8975 32.0755 11.9265 32.1626Z" fill="#01B075"/>
</svg>
