<svg width="26" height="26" viewBox="0 0 26 26" fill="none" xmlns="http://www.w3.org/2000/svg">
<path d="M9.84488 25.2551C9.84488 24.8423 9.51277 24.5102 9.09999 24.5102H2.23942C1.82665 24.5102 1.49453 24.1781 1.49453 23.7653V16.9047C1.49453 16.492 1.16241 16.1599 0.74964 16.1599C0.336866 16.1599 0.00474992 16.492 0.00474992 16.9047V25.2551C5.39515e-06 25.6679 0.332122 26 0.744895 26H9.09525C9.51277 26 9.84488 25.6679 9.84488 25.2551Z" fill="white"/>
<path d="M11.2587 13.5551H3.78611C3.13136 13.5551 2.59998 14.0865 2.59998 14.7413V22.2139C2.59998 22.8686 3.13136 23.4 3.78611 23.4H11.2587C11.9135 23.4 12.4449 22.8686 12.4449 22.2139V14.7413C12.4449 14.0865 11.9135 13.5551 11.2587 13.5551Z" fill="white"/>
<path d="M16.1551 25.2551C16.1551 24.8423 16.4872 24.5102 16.9 24.5102H23.7606C24.1733 24.5102 24.5055 24.1781 24.5055 23.7653V16.9047C24.5055 16.492 24.8376 16.1599 25.2503 16.1599C25.6631 16.1599 25.9952 16.492 25.9952 16.9047V25.2551C26 25.6679 25.6631 26 25.2503 26H16.9C16.4872 26 16.1551 25.6679 16.1551 25.2551Z" fill="white"/>
<path d="M14.7365 13.5551H22.2091C22.8639 13.5551 23.3952 14.0865 23.3952 14.7413V22.2139C23.3952 22.8686 22.8639 23.4 22.2091 23.4H14.7365C14.0817 23.4 13.5504 22.8686 13.5504 22.2139V14.7413C13.5504 14.0865 14.0817 13.5551 14.7365 13.5551Z" fill="white"/>
<path d="M16.1551 0.749593C16.1551 1.16237 16.4872 1.49448 16.9 1.49448H23.7606C24.1733 1.49448 24.5055 1.8266 24.5055 2.23937V9.09996C24.5055 9.51273 24.8376 9.84485 25.2503 9.84485C25.6631 9.84485 25.9952 9.51273 25.9952 9.09996V0.749593C25.9952 0.336819 25.6631 0.00470161 25.2503 0.00470161H16.9C16.4872 -4.29153e-05 16.1551 0.336819 16.1551 0.749593Z" fill="white"/>
<path d="M14.7365 12.4496H22.2091C22.8639 12.4496 23.3952 11.9182 23.3952 11.2635V3.79082C23.3952 3.13608 22.8639 2.60469 22.2091 2.60469H14.7365C14.0817 2.60469 13.5504 3.13608 13.5504 3.79082V11.2635C13.5504 11.9182 14.0817 12.4496 14.7365 12.4496Z" fill="white"/>
<path d="M9.8449 0.749593C9.8449 1.16237 9.51278 1.49448 9.10001 1.49448H2.23943C1.82666 1.49448 1.49454 1.8266 1.49454 2.23937V9.09996C1.49454 9.51273 1.16242 9.84485 0.749651 9.84485C0.336877 9.84485 0.00476074 9.51273 0.00476074 9.09996V0.749593C0.00476074 0.336819 0.336877 0.00470161 0.749651 0.00470161H9.10001C9.51278 -4.29153e-05 9.8449 0.336819 9.8449 0.749593Z" fill="white"/>
<path d="M11.2587 12.4496H3.78611C3.13136 12.4496 2.59998 11.9182 2.59998 11.2635V3.79082C2.59998 3.13608 3.13136 2.60469 3.78611 2.60469H11.2587C11.9135 2.60469 12.4449 3.13608 12.4449 3.79082V11.2635C12.4449 11.9182 11.9135 12.4496 11.2587 12.4496Z" fill="white"/>
</svg>
