<svg width="50" height="50" viewBox="0 0 50 50" fill="none" xmlns="http://www.w3.org/2000/svg">
<path d="M4.46818 0.632205C2.78989 1.43866 1.48213 2.72462 0.741064 4.33752C0.196164 5.49271 0.152572 5.77606 0.087184 9.74293L0 13.9496H1.22058H2.44115V9.98268C2.44115 5.44912 2.63731 4.75165 4.20663 3.4003C5.40541 2.37588 6.45161 2.17972 10.5929 2.17972H14.211V1.08992V0.000121117H10.0262C5.84133 0.000121117 5.81953 0.000121117 4.46818 0.632205Z" fill="#01B075"/>
<path d="M36.0068 1.06812V2.13613L40.1045 2.22331C44.5727 2.2887 44.8778 2.37588 46.2074 3.72723C47.5151 5.07859 47.6459 5.60169 47.7331 9.96089L47.8203 13.9496H48.9101H49.9999L49.9127 9.63395C49.8255 4.62087 49.6511 4.03238 47.7113 2.09254C45.8804 0.261673 44.9432 0.000121117 40.0391 0.000121117H36.0068V1.06812Z" fill="#01B075"/>
<path d="M7.06166 12.2495L7.12705 17.546L12.5325 17.6113L17.9161 17.6549V12.3149V6.9749H12.4671H7.01807L7.06166 12.2495ZM15.998 12.2277C16.0416 14.1458 16.0198 15.7805 15.9762 15.8241C15.9326 15.8677 14.3197 15.9113 12.4235 15.9113H8.97971V12.3149V8.71858H12.4671H15.9326L15.998 12.2277Z" fill="#01B075"/>
<path d="M10.7236 12.3147V14.1674H12.4673H14.211V12.3147V10.4621H12.4673H10.7236V12.3147Z" fill="#01B075"/>
<path d="M21.4038 7.84658V8.71842H20.532H19.6602V10.4621V12.2058H20.532H21.4038V10.4621V8.71842H22.2757H23.1475V10.4621V12.2058H25.022H26.8746L26.8092 11.3775C26.7439 10.5929 26.7221 10.5711 25.8284 10.5057L24.8912 10.4403V8.69663V6.97474H23.1475H21.4038V7.84658Z" fill="#01B075"/>
<path d="M28.5962 8.71854V10.4622H29.468H30.3399V8.71854V6.97486H29.468H28.5962V8.71854Z" fill="#01B075"/>
<path d="M32.1708 7.25825C32.1272 7.41082 32.1054 9.78658 32.1272 12.5329L32.1926 17.546L37.598 17.6113L42.9816 17.6549V12.3149V6.9749H37.6416C33.5004 6.9749 32.258 7.04029 32.1708 7.25825ZM41.0636 12.3149V15.8023L37.5544 15.8677L34.0453 15.9113V12.3149V8.71858L37.5326 8.76217L41.0418 8.82756L41.0636 12.3149Z" fill="#01B075"/>
<path d="M35.7891 12.3147V14.1674H37.5327H39.2764V12.3147V10.4621H37.5327H35.7891V12.3147Z" fill="#01B075"/>
<path d="M21.4038 13.2956V14.1675H20.532H19.6602V15.0393V15.9112H21.4038H23.1475V14.1675V12.4238H22.2757H21.4038V13.2956Z" fill="#01B075"/>
<path d="M26.8091 13.2302C26.7437 14.0149 26.7001 14.0585 25.9591 14.1238C25.327 14.1674 25.1308 14.2982 25.0654 14.6687C24.8911 15.6496 25.0872 15.9111 26.0027 15.9111C26.8527 15.9111 26.8527 15.9111 26.8527 16.7829V17.6548H25.9809H25.109V18.5266V19.3985H25.9809H26.8527V20.3793V21.3601H29.4682H32.0837V20.3793V19.3985H31.2119H30.3401V18.5266V17.6548H29.4682H28.5964V15.9111V14.1674H29.4682H30.3401V13.2956V12.4238H28.6182H26.8745L26.8091 13.2302ZM28.5964 18.5266V19.3985H27.7245H26.8527V18.5266V17.6548H27.7245H28.5964V18.5266Z" fill="#01B075"/>
<path d="M21.4037 18.5266V19.3985H20.5319H19.6601V20.3793V21.3601H18.81C17.9382 21.3601 17.9382 21.3601 17.8728 20.4229C17.8074 19.5075 17.8074 19.5075 16.9356 19.5075C16.0637 19.5075 16.0637 19.5075 15.9983 20.4447C15.9329 21.3819 15.9329 21.3819 15.1265 21.3165C14.3418 21.2511 14.32 21.2294 14.2546 20.3139L14.1893 19.3985H11.5737H8.98002V20.3793V21.3601H7.9774H6.99658L7.06197 22.1666C7.12736 22.973 7.14915 22.9948 8.06459 23.0602C8.98002 23.1256 8.98002 23.1256 8.98002 23.9756C8.98002 24.8257 8.98002 24.8257 8.06459 24.8911C7.14915 24.9565 7.12736 24.9783 7.06197 25.7629L6.99658 26.5912H9.72108H12.4674V27.463V28.3348H10.7237H8.98002V29.3157V30.2965H11.5955H14.2111V28.4438V26.5912H15.0829H15.9547V27.463V28.3348H16.9356H17.9164V29.3157V30.2965H18.7882H19.6601V31.1683V32.0402H20.5319H21.4037V31.1683C21.4037 30.2965 21.4037 30.2965 20.5537 30.2965C19.6818 30.2965 19.6818 30.2965 19.6165 29.3593C19.5511 28.4656 19.5293 28.4438 18.7446 28.3784C17.9382 28.313 17.9164 28.2913 17.9164 27.4412C17.9164 26.5912 17.9164 26.5912 18.7882 26.5912H19.6601V27.463V28.3348H20.5319H21.4037V27.463V26.5912H20.5319H19.6601V25.7193V24.8475H20.5319H21.4037V23.9756V23.1038H20.5319H19.6601V22.232V21.3601H20.5319H21.4037V20.3793V19.3985H22.2538C23.1256 19.3985 23.1256 19.3985 23.191 20.3139C23.2564 21.2294 23.2782 21.2511 24.0846 21.3165L24.8911 21.3819V20.4011V19.3985H24.0192H23.1474V18.5266V17.6548H22.2756H21.4037V18.5266ZM12.4674 23.1038V24.8475H11.5955H10.7237V23.9756V23.1038H9.85186H8.98002V22.232V21.3601H10.7237H12.4674V23.1038ZM17.9164 24.8475V26.5912H16.9356H15.9547V25.7193V24.8475H15.0829H14.2111V23.9756V23.1038H16.0637H17.9164V24.8475Z" fill="#01B075"/>
<path d="M34.0454 20.3794V21.382L34.8737 21.3166C35.6583 21.2512 35.6801 21.2294 35.6801 20.3794C35.6801 19.5294 35.6583 19.5076 34.8737 19.4422L34.0454 19.3768V20.3794Z" fill="#01B075"/>
<path d="M37.5761 20.314C37.6415 21.2294 37.6633 21.2512 38.4698 21.3166L39.2762 21.382V20.4012V19.3986H38.3826H37.5107L37.5761 20.314Z" fill="#01B075"/>
<path d="M28.5964 23.3C26.7219 23.9102 24.8039 25.5231 24.0192 27.1361C23.2128 28.7925 23.0384 30.3401 23.4525 31.9966C24.1064 34.6121 25.8501 36.5955 28.2913 37.4238C29.7298 37.9033 32.5197 37.7289 33.8928 37.0314L34.939 36.5301L38.0341 39.6252C39.7341 41.3252 41.2381 42.7202 41.3688 42.7202C41.4778 42.7202 41.9137 42.3714 42.3279 41.9573L43.0689 41.1945L39.8649 37.9687L36.6391 34.7429L37.2494 33.5659C37.7725 32.5415 37.8597 32.1273 37.8597 30.5144C37.8597 28.9669 37.7725 28.4656 37.2712 27.4194C36.5737 25.8937 35.157 24.4551 33.7185 23.7795C32.5415 23.2128 29.6644 22.9512 28.5964 23.3ZM32.6069 25.5885C35.9198 26.9617 36.8789 31.4081 34.4159 33.9582C32.3017 36.1814 28.8144 36.225 26.8309 34.0672C23.6705 30.667 25.9155 25.327 30.5144 25.2834C31.2555 25.2834 32.1927 25.4142 32.6069 25.5885Z" fill="#01B075"/>
<path d="M7.17064 32.1927C7.08345 32.2581 7.01807 34.6775 7.01807 37.5327V42.7202H12.4671H17.9161V37.3802V32.0401H12.6196C9.69897 32.0401 7.23603 32.1055 7.17064 32.1927ZM15.9762 33.871C16.0198 33.9146 16.0416 35.5493 15.998 37.4674L15.9326 40.9765H12.4671H8.97971V37.3802V33.7838H12.4235C14.3197 33.7838 15.9326 33.8274 15.9762 33.871Z" fill="#01B075"/>
<path d="M10.7236 37.3802V39.2328H12.4673H14.211V37.3802V35.5275H12.4673H10.7236V37.3802Z" fill="#01B075"/>
<path d="M19.6602 34.6557V35.5275H20.532H21.4038V34.6557V33.7838H20.532H19.6602V34.6557Z" fill="#01B075"/>
<path d="M0.043457 39.2765C0.043457 43.4613 0.326805 44.8999 1.4384 46.5128C2.26665 47.7334 2.87694 48.2565 4.40266 49.0629C5.31809 49.5642 5.64503 49.586 9.80806 49.6514L14.2109 49.7168V48.627V47.5154H10.3312C6.58225 47.5154 6.40789 47.4936 5.31809 46.9487C4.01033 46.2948 3.0513 45.2268 2.68077 44.0498C2.55 43.5703 2.44102 41.6523 2.44102 39.4727V35.7456H1.24224H0.043457V39.2765Z" fill="#01B075"/>
<path d="M47.7331 39.7124C47.6677 44.137 47.5151 44.6819 45.9894 46.1422C44.7906 47.2974 43.8316 47.5153 39.6904 47.5153H36.0068V48.6269V49.7385L40.3224 49.6513C44.5291 49.586 44.638 49.5642 45.8586 48.9757C47.2536 48.3 48.5613 46.9268 49.3242 45.3793C49.8037 44.4203 49.8473 44.0498 49.9127 40.0393L49.9999 35.7455H48.9101H47.8203L47.7331 39.7124Z" fill="#01B075"/>
<path d="M19.8127 37.402C19.7255 37.4892 19.6602 37.9469 19.6602 38.4046C19.6602 39.2328 19.6602 39.2328 20.5538 39.2328H21.4256L21.3602 38.2956C21.2949 37.4456 21.2513 37.3802 20.641 37.3148C20.2704 37.2712 19.8999 37.3148 19.8127 37.402Z" fill="#01B075"/>
</svg>
