<svg width="52" height="39" viewBox="0 0 52 39" fill="none" xmlns="http://www.w3.org/2000/svg">
<path d="M20.97 0.120217C18.9296 0.594482 16.9663 2.33713 16.3046 4.28934L16.106 4.8739L8.4847 4.92905L0.863361 4.98419L0.532478 5.30405C-0.0851703 5.89964 -0.173406 6.78199 0.311889 7.39964C0.819243 8.03935 0.521448 8.01729 8.62808 8.01729H16.095L16.1612 8.25993C16.1943 8.40332 16.4259 8.91067 16.6575 9.39597C18.3009 12.6827 22.481 13.918 25.6134 12.043C26.8818 11.282 27.9516 9.99155 28.4369 8.65699L28.6796 8.01729H39.7531C51.8083 8.01729 51.1796 8.05038 51.687 7.39964C52.1943 6.75993 52.073 5.84449 51.4112 5.25993L51.0252 4.92905H39.8414H28.6685L28.5252 4.50993C27.8965 2.57978 26.3744 1.00257 24.4663 0.340805C23.4516 -0.0121365 21.9627 -0.100371 20.97 0.120217ZM23.8487 3.46213C24.4112 3.75993 25.073 4.42169 25.3707 4.98419C25.6796 5.60184 25.7568 6.82611 25.5141 7.55405C25.2715 8.25993 24.5877 9.04302 23.8597 9.42905C23.3855 9.6717 23.1538 9.72685 22.4149 9.72685C21.6649 9.72685 21.4332 9.68273 20.9038 9.41802C19.7016 8.83346 19.106 7.84082 19.106 6.41802C19.106 5.67905 19.1612 5.44743 19.4038 4.97316C19.7568 4.30037 20.5509 3.57243 21.1796 3.34081C21.8413 3.09816 23.2641 3.16434 23.8487 3.46213Z" fill="#01B075"/>
<path d="M39.5655 13.0909C37.2383 13.499 35.2199 15.2637 34.492 17.5248L34.3596 17.9439H17.7493C1.46988 17.9439 1.11693 17.9439 0.775022 18.1645C-0.239686 18.7821 -0.261744 20.1167 0.730904 20.7784L1.1059 21.0321H17.7383H34.3596L34.503 21.4402C35.231 23.7012 37.0618 25.3446 39.367 25.8189C40.4148 26.0395 40.9442 26.0395 41.9369 25.8299C43.8119 25.4329 45.5214 24.1204 46.3707 22.4108C46.6023 21.9255 46.8339 21.4181 46.867 21.2748C46.9332 21.0321 46.9552 21.0321 48.9185 21.0321C50.7935 21.0321 50.9148 21.0211 51.2677 20.7784C52.2604 20.1167 52.2383 18.7821 51.2236 18.1645C50.9038 17.9659 50.6611 17.9439 48.9074 17.9439C46.9552 17.9439 46.9332 17.9439 46.867 17.7012C46.8339 17.5578 46.6023 17.0505 46.3707 16.5652C45.1244 14.0615 42.2898 12.6167 39.5655 13.0909ZM42.0692 16.488C42.7861 16.863 43.2824 17.3483 43.6133 18.0321C44.0545 18.9255 44.0545 20.0505 43.6133 20.9439C42.8854 22.4218 41.1427 23.1498 39.5876 22.6424C38.9148 22.4108 37.9993 21.6387 37.6574 20.988C37.3045 20.3262 37.3045 18.6498 37.6574 17.988C37.9773 17.3924 38.8927 16.5762 39.4883 16.3556C40.1501 16.113 41.4626 16.1792 42.0692 16.488Z" fill="#01B075"/>
<path d="M11.6171 26.1057C10.1391 26.3704 9.0472 26.9329 8.01043 27.9807C7.32661 28.6755 6.53249 29.966 6.34499 30.716L6.27881 30.9586H3.71998C0.962625 30.9586 0.775125 30.9917 0.311889 31.5763C-0.173406 32.1939 -0.0851703 33.0763 0.532478 33.6719L0.863361 33.9917L3.5766 34.0469L6.27881 34.102L6.54352 34.7969C7.23837 36.6608 8.72734 38.0505 10.7788 38.7454C11.6832 39.0542 13.4479 39.0322 14.4957 38.7013C15.5435 38.3814 16.8229 37.5101 17.4957 36.6719C18.0141 36.0322 18.72 34.7527 18.72 34.4549C18.72 34.0469 18.5215 34.0469 35.0105 34.0469H51.0252L51.4112 33.716C52.073 33.1314 52.1943 32.216 51.687 31.5763C51.1686 30.9145 52.2715 30.9586 34.845 30.9586H18.8634L18.6207 30.3189C17.9369 28.4219 16.2163 26.8336 14.2972 26.2821C13.5251 26.0616 12.3009 25.9843 11.6171 26.1057ZM14.0435 29.5579C15.2678 30.1755 15.9185 31.3557 15.8303 32.7674C15.7641 33.6608 15.4994 34.2785 14.9149 34.8741C14.22 35.5579 13.7237 35.7564 12.5987 35.7564C11.4406 35.7564 10.8009 35.5027 10.1501 34.7858C8.49572 32.9439 9.24573 30.1094 11.584 29.3483C12.2788 29.1167 13.3707 29.216 14.0435 29.5579Z" fill="#01B075"/>
</svg>
