<svg width="26" height="19" viewBox="0 0 26 19" fill="none" xmlns="http://www.w3.org/2000/svg">
<g clip-path="url(#clip0_3623_160)">
<path d="M25.433 2.85183C25.1328 1.73445 24.2489 0.850545 23.1315 0.550353C21.1135 0 12.9917 0 12.9917 0C12.9917 0 4.86978 0.0166774 2.85182 0.56703C1.73444 0.867223 0.850541 1.75112 0.550348 2.86851C-0.0667138 6.45414 -0.300197 11.9243 0.567026 15.3598C0.867218 16.4772 1.75112 17.3611 2.8685 17.6613C4.88646 18.2117 13.0083 18.2117 13.0083 18.2117C13.0083 18.2117 21.1302 18.2117 23.1482 17.6613C24.2656 17.3611 25.1495 16.4772 25.4496 15.3598C26.0834 11.7742 26.2835 6.30404 25.433 2.85183ZM10.4067 13.0083V5.20334L17.1443 9.10584L10.4067 13.0083Z" fill="white"/>
</g>
<defs>
<clipPath id="clip0_3623_160">
<rect width="26" height="18.2117" fill="white"/>
</clipPath>
</defs>
</svg>
