<svg width="48" height="48" viewBox="0 0 48 48" fill="none" xmlns="http://www.w3.org/2000/svg">
<path d="M16.2458 25.7544L19.0932 33.6356C19.0932 33.6356 19.4492 34.373 19.8304 34.373C20.2116 34.373 25.8814 28.4746 25.8814 28.4746L32.1864 16.2966L16.3474 23.72L16.2458 25.7544Z" fill="#C8DAEA"/>
<path d="M20.0212 27.7756L19.4746 33.5848C19.4746 33.5848 19.2458 35.3648 21.0254 33.5848C22.805 31.8048 24.5084 30.4322 24.5084 30.4322" fill="#A9C6D8"/>
<path d="M11.8014 26.8911L0.961133 23.31C0.961133 23.31 -0.334398 22.7771 0.0827627 21.5686C0.168638 21.3194 0.341868 21.1074 0.860081 20.743C3.26199 19.0455 45.3175 3.71938 45.3175 3.71938C45.3175 3.71938 46.505 3.31368 47.2053 3.58352C47.3785 3.63789 47.5344 3.73796 47.657 3.87346C47.7796 4.00897 47.8645 4.17507 47.903 4.35476C47.9787 4.67214 48.0103 4.99867 47.997 5.32491C47.9937 5.60713 47.96 5.86872 47.9345 6.27892C47.6783 10.4691 40.0132 41.7421 40.0132 41.7421C40.0132 41.7421 39.5546 43.5721 37.9115 43.6348C37.5077 43.648 37.1054 43.5786 36.7287 43.4309C36.3519 43.2831 36.0083 43.0599 35.7184 42.7746C32.494 39.9625 21.3495 32.3686 18.8868 30.6986C18.8313 30.6602 18.7845 30.6102 18.7496 30.5519C18.7148 30.4936 18.6926 30.4285 18.6847 30.3608C18.6503 30.1848 18.8391 29.9667 18.8391 29.9667C18.8391 29.9667 38.2447 12.4777 38.761 10.6418C38.801 10.4995 38.65 10.4294 38.4471 10.4917C37.1583 10.9724 14.8152 25.2785 12.3492 26.8574C12.1717 26.9118 11.9841 26.9234 11.8014 26.8911V26.8911Z" fill="white"/>
</svg>
