<svg width="29" height="23" viewBox="0 0 29 23" fill="none" xmlns="http://www.w3.org/2000/svg">
<path d="M27 12.6851C27.8284 12.6851 28.5 12.0135 28.5 11.1851C28.5 10.3566 27.8284 9.68506 27 9.68506V12.6851ZM0.93934 10.1244C0.353553 10.7102 0.353553 11.6599 0.93934 12.2457L10.4853 21.7917C11.0711 22.3774 12.0208 22.3774 12.6066 21.7917C13.1924 21.2059 13.1924 20.2561 12.6066 19.6703L4.12132 11.1851L12.6066 2.69978C13.1924 2.11399 13.1924 1.16424 12.6066 0.578457C12.0208 -0.00732994 11.0711 -0.00732994 10.4853 0.578457L0.93934 10.1244ZM27 9.68506H2V12.6851H27V9.68506Z" fill="black"/>
</svg>
